<?xml version="1.0" encoding="utf-8"?>
<!-- Generator: Adobe Illustrator 26.5.0, SVG Export Plug-In . SVG Version: 6.00 Build 0)  -->
<svg version="1.1" id="Layer_1" xmlns="http://www.w3.org/2000/svg" xmlns:xlink="http://www.w3.org/1999/xlink" x="0px" y="0px"
	 viewBox="0 0 160 120" style="enable-background:new 0 0 160 120;" xml:space="preserve">
<style type="text/css">
	.st0{fill:#335052;}
</style>
<g>
	<path class="st0" d="M25.2,54.4c-0.4,0.3,0.1,1.3,1.5,2.3c0.9-0.1,1.9-0.3,3-0.5C27.9,54.6,25.7,54,25.2,54.4z"/>
	<path class="st0" d="M32.5,55.8c0.9-0.2,1.9-0.3,2.8-0.5c-1.5-1.5-3.2-2.2-3.8-1.8C31.1,53.7,31.3,54.7,32.5,55.8z"/>
	<path class="st0" d="M73.3,36.4c0.3-0.3-0.3-1.1-1.3-1.6c-0.8,0.2-1.8,0.5-2.8,0.9C71,36.7,72.9,36.8,73.3,36.4z"/>
	<path class="st0" d="M64.6,31.4c1-0.8,2.1-1.7,3-2.4c-1.2,0.3-2.9,0.7-4.6,1.2C63.6,30.5,64.2,30.9,64.6,31.4z"/>
	<path class="st0" d="M22.2,38.5c-1.7-2.1-4-3.1-4.7-2.7c-0.4,0.3-0.2,1.4,0.9,2.6C19.5,38.4,20.8,38.5,22.2,38.5z"/>
	<path class="st0" d="M52.1,21c-1.2,1.1-2.4,2.9-2,3.4c0.4,0.5,1.9-0.4,3.4-1.9c1.1-1.2,2.5-3.1,2-3.4C55.2,18.7,53.3,19.9,52.1,21z
		"/>
	<path class="st0" d="M141.9,108.7c3.8,2.5,8.8,2.1,13.9,0.5c1.1-2.3,1.7-4.8,1.7-7.5c0-9.9-8-17.9-17.9-17.9
		c-19.2,0-28.3-13.8-41.6-36.4C85.6,26.5,70.3,0.5,38.5,0.5c-15.5,0-26.3,5-32.1,14.7c-9.7,16.5,0.7,35.3,10.8,53.6
		c2.3,4.3,5.7,10.3,7.9,15.2c-8.8,1.1-15.5,8.6-15.5,17.7c0,9.9,8,17.9,17.9,17.9c15.3,0,26-4.9,31.8-14.6
		c9.7-16.4-0.7-35.2-10.7-53.4c-2.4-4.3-5.7-10.4-7.9-15.2c9.1,1.1,15.4,10.2,26.6,29.2c13.4,22.8,31.8,54,72.4,54
		c4.7,0,9-1.9,12.2-4.9c-1.9,0.3-3.8-0.3-4.6-0.6c-5.9-2-8.9-8.6-8.7-8.7C138.6,105.2,139.7,107.2,141.9,108.7z M149.3,96.5
		c1.6,0,3,1.3,3,3s-1.3,3-3,3c-1.6,0-3-1.3-3-3S147.7,96.5,149.3,96.5z M14.3,24c0.3-0.8,0.9-1.6,1.5-2.1c0.6-0.4,1.2-0.4,2-0.3
		c0.8,0.1,2.1,0.6,2.7,1c0.4,0.2,0.5,0.4,0.3,0.8c-0.4,1.1-1.2,1.5-2.2,1.2c-0.7-0.2-1.7-0.5-1.9-0.3c-0.3,0.6,1.5,2.5,3.7,4
		c1.9,1.3,4.4,2.1,4.8,1.4c0.4-0.6-0.6-1.8-1.9-2.8c-0.2,1.1-0.8,1.5-2,1.4c-0.4,0-0.5-0.2-0.5-0.6c0-0.8,0-2,0-2.7
		c0-0.6,0.2-0.9,0.6-1.1c0.3-0.1,0.7-0.2,0.9-0.3c0.6-0.1,0.9,0,1.4,0.3c1.8,1.2,3,2.6,3.6,3.8c0.4,0.8,0.4,1.6,0.1,2.4
		c-0.3,0.7-0.7,1.3-1.2,1.8c-0.4,0.4-1.1,0.7-1.8,0.8c-3.2,0.2-8.5-3.2-10.2-6.8C14,25.4,14.1,24.6,14.3,24z M14.8,35.3
		c0.4-0.7,1.2-1.4,2.2-1.9c1.1-0.5,2.2-0.3,3.2,0.3c1.1,0.6,2.2,1.5,3.3,2.6c0.9-1,2-2.6,2.7-3.6c0.3-0.4,0.5-0.4,0.8-0.2
		c0.4,0.3,0.5,0.4,0.7,0.7c0.2,0.3,0.4,0.8,0.1,1.6c-0.4,1-1.6,2.7-2.7,3.9c1.4,0,2.8,0,4.1,0c0.5,0,0.6,0.1,0.6,0.6
		c0,0.5,0,0.9-0.1,1.3c-0.1,0.5-0.4,0.6-1,0.7c-2,0.2-5.9,0.3-9.2,0.3c-0.3,0.3-0.6,0.6-0.9,0.8c-0.5,0.3-0.7,0.4-1.1,0.1
		C15.9,40.6,13.7,37,14.8,35.3z M21.9,51.2c-0.3,0.3-0.5,0.2-0.7-0.1c-1-1.1-2.5-3.5-3.4-5.2c-0.2-0.4-0.1-0.7,0.2-1
		c0.3-0.3,0.6-0.5,1-0.8c0.4-0.2,0.6-0.2,0.9,0.2c0.5,0.8,1.2,1.9,1.9,2.8c0.9-0.1,2-0.2,3.1-0.3c-0.3-0.4-0.6-0.9-0.9-1.4
		c-0.2-0.4-0.2-0.7,0.1-1c0.3-0.3,0.6-0.6,1-0.8c0.4-0.3,0.6-0.2,0.9,0.2c0.7,0.9,1.4,1.9,2.1,2.7c0.7-0.1,1.4-0.2,2-0.2
		c-0.5-0.7-1-1.4-1.4-2.2c-0.2-0.4-0.3-0.7,0-1c0.3-0.3,0.6-0.6,1-0.8c0.4-0.3,0.6-0.2,0.9,0.1c0.8,1,1.6,2.1,2.4,3
		c0.4,0.5,0.5,0.8,0.4,1.3c-0.1,0.4-0.2,0.7-0.5,1.2c-0.2,0.4-0.5,0.7-1.1,0.8c-1.9,0.4-5.8,1-8.8,1.4C22.6,50.5,22.2,51,21.9,51.2z
		 M26.5,60.4c-2-1.3-4.7-4.5-4-6.3c0.3-0.8,0.8-1.4,1.6-2c1-0.6,2.2-0.5,3.2-0.1c0.5,0.2,1.1,0.5,1.8,0.8c0.1-0.8,0.6-1.5,1.3-2
		c0.9-0.5,1.7-0.5,2.6-0.1c1.4,0.5,3.3,1.7,4.3,2.7c0.6,0.6,0.7,0.8,0.6,1.5c-0.1,0.7-0.2,1-0.4,1.7c-0.3,0.7-0.4,0.9-1.2,1.1
		c-2.1,0.6-5.4,1.2-8.1,1.7c-0.2,0.3-0.4,0.6-0.6,0.9C27.2,60.6,26.9,60.7,26.5,60.4z M51.7,88.9c0.5,0.7,0.6,1.3,0.6,2.2
		c0,0.8-0.3,1.5-0.6,2c-0.3,0.4-0.8,0.8-1.4,1c-2.4,0.9-7.4-0.8-11.2-2.1c-0.5-0.2-0.6-0.4-0.4-0.9c0.2-0.5,0.4-1,0.7-1.3
		c0.4-0.4,0.8-0.5,1.4-0.3c3.1,1.1,8.9,3,9.2,1.8c0.4-1.5-7.6-3.4-11.2-4.2c-0.5-0.1-0.6-0.4-0.5-0.9c0.1-0.5,0.4-1.1,0.7-1.5
		c0.3-0.4,0.5-0.4,1-0.3C45.9,85.7,50.3,86.9,51.7,88.9z M48.2,77.1c0.7,1,1.4,2.1,2.1,3.1c0.5,0.6,0.5,1,0.3,1.5
		c-0.1,0.4-0.3,0.7-0.6,1.1c-0.3,0.4-0.6,0.6-1.1,0.7c-2.7,0.3-8.4,0.6-11.5,0.5c-0.6,0-0.7-0.3-0.7-0.7c0-0.5,0-1.2,0.2-1.7
		c0.2-0.5,0.3-0.6,0.9-0.6c2.5,0,6.3,0,9.5-0.2c-0.4-0.7-0.8-1.4-1.1-2.2c-0.2-0.4-0.2-0.7,0.1-1c0.3-0.3,0.7-0.5,1.1-0.7
		C47.8,76.6,47.9,76.6,48.2,77.1z M44.5,68.9c0.8,1,1.7,2.1,2.5,3c0.4,0.5,0.5,0.8,0.4,1.3c-0.1,0.4-0.2,0.7-0.5,1.2
		c-0.2,0.4-0.5,0.7-1.1,0.8c-1.9,0.5-5.8,1-8.8,1.4c-0.3,0.4-0.7,0.8-1,1.1c-0.3,0.3-0.5,0.2-0.7-0.1c-1-1.1-2.5-3.5-3.5-5.2
		c-0.2-0.4-0.1-0.7,0.2-1c0.3-0.3,0.6-0.5,1-0.8c0.4-0.2,0.6-0.2,0.9,0.2c0.5,0.8,1.2,1.9,1.9,2.8c0.9-0.1,2-0.2,3.1-0.3
		c-0.3-0.4-0.6-0.9-0.9-1.4c-0.2-0.4-0.2-0.7,0.1-1c0.3-0.3,0.6-0.6,1-0.8c0.4-0.3,0.6-0.2,0.9,0.2c0.7,0.9,1.4,1.9,2.1,2.7
		c0.7-0.1,1.4-0.2,2-0.3c-0.5-0.7-1-1.4-1.4-2.2c-0.2-0.4-0.3-0.7,0-1c0.3-0.4,0.6-0.6,1-0.8C44,68.5,44.2,68.5,44.5,68.9z
		 M40.7,59.8c0.1,0.4,0.1,0.9,0.1,1.3c0,0.4-0.2,0.8-0.6,1.2c-1.2,1.1-3,2.3-5.3,3.8c1.7-0.3,4.8-1,7.9-1.7c0.5-0.1,0.7,0,0.8,0.5
		c0,0.3,0.1,0.7,0,1c0,0.6-0.2,0.8-1.1,1c-2.1,0.6-8.4,1.9-11.5,2.5c-0.4,0.1-0.7-0.1-0.8-0.3c-0.2-0.3-0.3-1.2-0.3-1.9
		c0-0.6,0.1-0.8,0.6-1.1c1.7-1.1,3.8-2.4,5.7-3.7c-2.3,0.6-5.9,1.4-8.1,1.8c-0.6,0.1-0.8-0.1-0.9-0.6c-0.1-0.3-0.1-0.7-0.1-1.1
		c0-0.6,0.2-0.8,0.9-1c3.2-0.6,8.4-1.7,11.7-2.5C40.3,59.1,40.5,59.3,40.7,59.8z M41.1,19.4c-0.9,0.1-1.8,0.3-2.7,0.5
		c-0.2,0.5-0.4,1-0.6,1.5c0.7-0.1,1.3-0.2,2-0.2c0.4,0,0.6,0.1,0.7,0.4c0.1,0.4,0.2,0.7,0.2,1c0,0.4-0.1,0.5-0.4,0.6
		c-1,0.2-2,0.4-2.9,0.6c-0.5,0.1-0.8,0-1-0.2c-0.2-0.2-0.4-0.4-0.6-0.7c-0.2-0.3-0.3-0.6-0.2-1.1c0.4-1.5,1.4-4.4,2.3-6.5
		c-0.2-0.3-0.3-0.8-0.4-1.1c-0.1-0.3,0-0.4,0.3-0.5c1.2-0.3,3.3-0.5,4.8-0.5c0.4,0,0.6,0.2,0.6,0.5c0.1,0.4,0.1,0.6,0.2,0.9
		c0,0.4-0.1,0.5-0.5,0.5c-0.8,0.1-1.7,0.1-2.6,0.3c-0.3,0.7-0.6,1.4-0.9,2.3c0.4-0.1,0.8-0.1,1.3-0.1c0.4,0,0.6,0.1,0.7,0.4
		c0.1,0.3,0.2,0.6,0.2,1C41.5,19.3,41.4,19.4,41.1,19.4z M48.2,16c-0.4-0.3-2.2,1.6-3.1,3c-1,1.5-1.6,3.3-1.1,3.6
		c0.3,0.2,0.8,0,1.6-0.6c0.6-0.4,1.2-0.4,1.8-0.1c0.5,0.3,0.3,0.6-0.1,1.1c-0.4,0.5-1.1,1-1.6,1.3c-0.5,0.3-1.4,0.3-2,0.1
		c-0.7-0.2-1.1-0.6-1.5-0.9c-0.3-0.3-0.6-0.8-0.7-1.3c-0.2-2.4,2.4-6.5,5.1-8c0.7-0.4,1.3-0.4,1.8-0.2c0.7,0.2,1.4,0.8,1.8,1.2
		c0.4,0.5,0.3,1,0.2,1.6c-0.2,0.6-0.5,1.5-0.9,2c-0.2,0.2-0.3,0.4-0.7,0.2c-0.8-0.4-1-0.9-0.9-1.6C48.1,16.9,48.5,16.2,48.2,16z
		 M51.7,26.4c-0.8,0.3-1.5,0.1-2.2-0.3c-0.5-0.3-0.9-0.7-1.2-1.2c-0.2-0.4-0.3-0.9-0.2-1.4c0.4-2.5,3.5-5.6,6.5-6.4
		c0.6-0.1,1.4,0,1.8,0.3c0.6,0.4,1.1,1,1.3,1.5c0.2,0.6,0.1,1.1-0.1,1.7C56.6,22.7,54.2,25.5,51.7,26.4z M56.3,24.7
		c0-0.3,0.1-0.7,0.2-1c0.1-0.4,0.4-0.4,0.7-0.3c0.9,0.4,2.3,1.3,3.4,2.1c0.3,0.2,0.3,0.4,0.2,0.7c-0.1,0.3-0.2,0.6-0.4,0.8
		c-0.2,0.3-0.3,0.3-0.6,0.1c-1-0.7-2.2-1.4-3.2-1.9C56.4,25.2,56.3,25.1,56.3,24.7z M62,35.7c-0.3-0.3-0.5-0.6-0.6-0.8
		c-0.1-0.3-0.1-0.5,0.3-0.9c0.4-0.4,0.9-0.8,1.4-1.3c-0.9-0.6-1.8-1.4-2.6-1.8c-0.7,0.2-1.4,0.4-2,0.6c-0.4,0.1-0.5,0-0.6-0.3
		c-0.1-0.3-0.2-0.6-0.2-1c0-0.4,0.2-0.5,0.7-0.7c2.5-0.9,7-2.2,9.5-2.7c0.5-0.1,0.8,0,1.2,0.4c0.5,0.5,0.9,1.3,1.1,1.8
		c0.2,0.4,0,0.6-0.3,0.9c-1.7,1.2-4.9,3.8-7.2,5.7C62.4,36,62.2,36,62,35.7z M67.1,41.3c-0.4-0.1-0.5-0.2-0.7-0.4
		c-0.3-0.2-0.5-0.5-0.5-1.1c0.1-0.8,0.5-2.4,1-3.5c-1,0.4-2.1,0.7-3,1.1c-0.3,0.1-0.5,0.1-0.6-0.2c-0.1-0.3-0.2-0.7-0.2-0.9
		c0-0.4,0.2-0.5,0.6-0.8c1.4-0.7,4.3-1.7,6.6-2.6c0.1-0.3,0.3-0.6,0.4-0.8c0.2-0.4,0.4-0.5,0.8-0.3c1.7,0.7,4.2,2.8,3.9,4.3
		c-0.1,0.6-0.5,1.3-1.1,2c-0.7,0.7-1.5,0.8-2.4,0.6c-0.9-0.1-2-0.5-3.1-1c-0.4,1-0.8,2.4-1,3.4C67.6,41.4,67.4,41.4,67.1,41.3z
		 M68.6,44.7c-0.3-0.6-0.4-1.2-0.4-1.7c0-0.4,0.1-1,0.4-1.4c1.5-1.9,6.2-3,9.2-2.2c0.8,0.2,1.2,0.7,1.4,1.1c0.3,0.6,0.5,1.5,0.4,2.1
		c-0.1,0.6-0.4,1-0.9,1.3c-0.6,0.4-1.5,0.7-2,0.8c-0.3,0.1-0.5,0.1-0.6-0.3c-0.3-0.8-0.1-1.3,0.5-1.8c0.5-0.3,1.2-0.5,1.2-0.9
		c-0.1-0.5-2.7-0.4-4.3,0c-1.7,0.4-3.5,1.2-3.3,1.8c0.1,0.3,0.6,0.5,1.6,0.7c0.7,0.1,1.2,0.5,1.3,1.2c0.1,0.5-0.2,0.7-0.8,0.7
		c-0.7,0.1-1.5,0-2-0.2C69.6,45.8,69,45.3,68.6,44.7z M73.7,52.4c-0.1-0.4-0.2-0.8-0.1-1.1c0-0.4,0.2-0.5,0.7-0.7
		c0.6-0.2,1.5-0.5,2.5-0.8c-0.3-0.4-0.8-0.9-1.2-1.4c-1.2,0.3-2.4,0.6-3.2,0.9c-0.4,0.1-0.5,0-0.6-0.3c-0.1-0.3-0.1-0.8-0.1-1.1
		c0-0.4,0.2-0.5,0.7-0.7c0.6-0.2,1.5-0.5,2.6-0.8c0.2-0.2,0.4-0.5,0.5-0.6c0.2-0.2,0.3-0.2,0.6,0c0.1,0.1,0.2,0.2,0.3,0.2
		c1.9-0.5,3.9-1.1,5.1-1.3c0.5-0.1,0.6,0.1,0.7,0.4c0.1,0.4,0.1,1,0.1,1.3c-0.1,0.4-0.2,0.5-0.6,0.6c-0.9,0.2-2.2,0.5-3.6,0.8
		c0.4,0.4,0.8,1,1,1.3c1.7-0.4,3.4-0.9,4.7-1.1c0.5-0.1,0.6,0.1,0.7,0.4c0.1,0.4,0.1,0.8,0.1,1.3c0,0.4-0.2,0.5-0.6,0.6
		c-2.3,0.5-6.4,1.5-9.3,2.3C73.9,52.9,73.8,52.8,73.7,52.4z M75.5,55.3c-0.1-0.4-0.1-0.8-0.1-1.1c0-0.4,0.2-0.5,0.7-0.7
		c1.8-0.6,6.8-1.9,9-2.4c0.4-0.1,0.6,0.1,0.7,0.5c0.1,0.4,0.1,1,0.1,1.3c-0.1,0.4-0.2,0.5-0.6,0.6C83,53.9,78.5,55,76,55.7
		C75.7,55.8,75.5,55.7,75.5,55.3z M78.2,60.1c-0.1-0.4-0.1-0.8-0.1-1.1c0-0.4,0.2-0.5,0.7-0.7c1.7-0.6,5-1.4,7.2-1.9
		c-0.3-0.3-0.5-0.6-0.7-0.8c-0.2-0.3-0.3-0.4-0.1-0.8c0.2-0.3,0.6-0.8,0.8-1c0.3-0.2,0.4-0.2,0.6,0c1.1,1.2,2.6,3.2,3.4,4.5
		c0.2,0.3,0.2,0.5,0.1,0.7c-0.2,0.4-0.5,0.7-0.7,0.9c-0.3,0.2-0.4,0.2-0.6-0.1c-0.3-0.4-0.7-1-1.1-1.5c-2.7,0.5-6.1,1.4-8.8,2.1
		C78.5,60.5,78.3,60.5,78.2,60.1z M84.3,67.6c-0.3,0.2-0.4,0.2-0.7,0c-0.7-0.7-1.4-1.5-2.1-2.1c-0.4-0.4-0.4-0.6-0.4-1
		c0-0.3,0.1-0.6,0.3-0.9c0.1-0.3,0.4-0.6,0.8-0.7c1.4-0.5,4.4-1.2,6.7-1.7c0.2-0.3,0.5-0.7,0.7-0.9c0.3-0.2,0.4-0.2,0.5,0
		c0.9,0.8,2.2,2.5,3,3.8c0.2,0.3,0.2,0.6-0.1,0.8c-0.2,0.3-0.4,0.5-0.7,0.7c-0.3,0.2-0.5,0.2-0.7-0.1c-0.5-0.6-1.1-1.4-1.7-2.1
		c-0.7,0.1-1.5,0.3-2.4,0.5c0.3,0.3,0.5,0.7,0.8,1c0.2,0.3,0.2,0.5,0,0.8c-0.2,0.3-0.4,0.5-0.7,0.7c-0.3,0.2-0.4,0.2-0.7-0.1
		c-0.6-0.6-1.2-1.4-1.9-2c-0.5,0.1-1.1,0.2-1.6,0.3c0.5,0.5,0.9,1,1.3,1.6c0.2,0.3,0.3,0.5,0.1,0.8C84.8,67.2,84.6,67.4,84.3,67.6z
		 M86.8,73.2c-0.6-0.2-1.2-0.7-1.5-1.3c-0.3-0.6-0.4-1.2-0.4-1.7c0-0.4,0.1-1,0.5-1.4c1.5-1.9,6.3-2.9,9.2-2.1
		c0.8,0.2,1.2,0.7,1.4,1.1c0.3,0.6,0.5,1.6,0.4,2.1c-0.1,0.6-0.5,1-1,1.3c-0.6,0.3-1.5,0.7-2,0.8c-0.3,0.1-0.5,0.1-0.6-0.3
		c-0.3-0.8-0.1-1.3,0.5-1.8c0.5-0.3,1.3-0.5,1.2-0.9c-0.1-0.5-2.7-0.4-4.3-0.1c-1.7,0.4-3.5,1.2-3.3,1.8c0.1,0.3,0.6,0.5,1.6,0.7
		c0.7,0.1,1.1,0.5,1.3,1.2c0.1,0.5-0.2,0.7-0.9,0.7C88.1,73.5,87.3,73.4,86.8,73.2z M90.3,78.5c-0.3,0.1-0.5,0.1-0.6-0.3
		c-0.1-0.3-0.2-0.8-0.2-1.1c0-0.4,0.2-0.5,0.6-0.7c1.6-0.7,4.8-1.9,7-2.5c-0.3-0.3-0.6-0.6-0.8-0.7c-0.3-0.2-0.3-0.4-0.2-0.7
		c0.2-0.4,0.5-0.8,0.7-1.1c0.2-0.2,0.4-0.2,0.6,0c1.2,1.1,2.8,2.9,3.8,4.2c0.2,0.3,0.2,0.5,0.2,0.7c-0.1,0.4-0.4,0.8-0.6,1
		c-0.3,0.2-0.4,0.3-0.6,0c-0.4-0.4-0.8-0.9-1.2-1.4C96.2,76.5,92.8,77.6,90.3,78.5z M104.3,81.1c-0.1,0.7-0.6,1-0.9,1.3
		c-0.7,0.4-1.9,0.9-2.7,1.1c-0.3,0.1-0.5,0-0.6-0.3c-0.3-0.9-0.1-1.5,0.5-1.8c0.5-0.3,1.8-0.7,1.8-0.9c-0.1-0.4-3.1-0.6-3.5,0.8
		c-0.4,1.6,0.3,3.8-1.3,4.1c-1.2,0.3-2.4,0.1-3.3-1c-0.7-0.8-1-2-0.6-3.6c0.2-0.8,0.5-0.9,0.8-0.8c0.5,0.2,0.9,0.8,0.9,1.3
		c0,1.3,0.3,2.2,0.9,2.3c0.6,0.1,0.3-1.9,0.5-3.2c0.2-0.9,0.8-1.9,2.1-2.2c1.1-0.3,2.8-0.3,3.9,0c0.4,0.1,1,0.5,1.3,1.2
		C104.3,79.9,104.4,80.6,104.3,81.1z"/>
	<path class="st0" d="M150.1,101.3c0.7,0,1.2-0.5,1.2-1.2s-0.5-1.2-1.2-1.2c-0.7,0-1.2,0.5-1.2,1.2S149.4,101.3,150.1,101.3z
		 M150.3,100c0.3,0,0.5,0.2,0.5,0.5c0,0.3-0.2,0.5-0.5,0.5c-0.3,0-0.5-0.2-0.5-0.5C149.8,100.2,150,100,150.3,100z"/>
</g>
</svg>
